<svg width="30" height="31" viewBox="0 0 30 31" fill="none" xmlns="http://www.w3.org/2000/svg">
<path d="M0 1.78571C0 1.07563 0.575672 0.5 1.2858 0.5H2.24289C3.87237 0.5 4.84802 1.59542 5.40592 2.6137C5.77781 3.29247 6.04682 4.07973 6.25725 4.79249C6.31424 4.78801 6.37197 4.78571 6.43037 4.78571H27.8557C29.279 4.78571 30.3069 6.14757 29.9165 7.51623L26.7831 18.5033C26.2056 20.5283 24.3551 21.9248 22.2493 21.9248H12.0518C9.92857 21.9248 8.06728 20.5055 7.50535 18.4581L6.20156 13.7078L4.04382 6.4242L4.04033 6.41143C3.77339 5.43802 3.52286 4.52865 3.1506 3.84919C2.78909 3.18937 2.50091 3.07143 2.24289 3.07143H1.2858C0.575672 3.07143 0 2.49579 0 1.78571ZM11.1436 30.5C13.0373 30.5 14.5724 28.965 14.5724 27.0714C14.5724 25.1779 13.0373 23.6429 11.1436 23.6429C9.24992 23.6429 7.7148 25.1779 7.7148 27.0714C7.7148 28.965 9.24992 30.5 11.1436 30.5ZM23.1444 30.5C25.0381 30.5 26.5732 28.965 26.5732 27.0714C26.5732 25.1779 25.0381 23.6429 23.1444 23.6429C21.2507 23.6429 19.7156 25.1779 19.7156 27.0714C19.7156 28.965 21.2507 30.5 23.1444 30.5Z" fill="white"/>
</svg>
