<svg width="16" height="14" viewBox="0 0 16 14" fill="none" xmlns="http://www.w3.org/2000/svg">
<path d="M0 3.5C0 2.39688 0.797222 1.5 1.77778 1.5H14.2222C15.2028 1.5 16 2.39688 16 3.5V5.5C16 5.775 15.7944 5.99063 15.5639 6.08125C15.0417 6.28438 14.6667 6.84375 14.6667 7.5C14.6667 8.15625 15.0417 8.71562 15.5639 8.91875C15.7944 9.00937 16 9.225 16 9.5V11.5C16 12.6031 15.2028 13.5 14.2222 13.5H1.77778C0.797222 13.5 0 12.6031 0 11.5V9.5C0 9.225 0.205556 9.00937 0.436111 8.91875C0.958333 8.71562 1.33333 8.15625 1.33333 7.5C1.33333 6.84375 0.958333 6.28438 0.436111 6.08125C0.205556 5.99063 0 5.775 0 5.5V3.5Z" fill="#42A953"/>
<path d="M5.09961 0.966667C4.80506 0.966667 4.56628 1.20545 4.56628 1.5C4.56628 1.79455 4.80506 2.03333 5.09961 2.03333C5.39416 2.03333 5.63294 1.79455 5.63294 1.5C5.63294 1.20545 5.39416 0.966667 5.09961 0.966667ZM4.99961 1.5V1.83333H5.19961V1.5H4.99961ZM4.99961 2.5V3.16667H5.19961V2.5H4.99961ZM4.99961 3.83333V4.5H5.19961V3.83333H4.99961ZM4.99961 5.16667V5.83333H5.19961V5.16667H4.99961ZM4.99961 6.5V7.16667H5.19961V6.5H4.99961ZM4.99961 7.83333V8.5H5.19961V7.83333H4.99961ZM4.99961 9.16667V9.83333H5.19961V9.16667H4.99961ZM4.99961 10.5V11.1667H5.19961V10.5H4.99961ZM4.99961 11.8333V12.5H5.19961V11.8333H4.99961ZM4.99961 13.1667V13.5H5.19961V13.1667H4.99961Z" fill="white"/>
</svg>
