<svg width="38" height="38" viewBox="0 0 38 38" fill="none" xmlns="http://www.w3.org/2000/svg">
<g filter="url(#filter0_d_180_4790)">
<circle cx="19" cy="15" r="15" fill="white"/>
</g>
<path d="M17.7697 8.20069C17.6057 8.02846 17.3596 7.96284 17.13 8.02299C16.9003 8.08313 16.7226 8.26631 16.6625 8.49596L16.2305 10.2047L14.5355 9.72623C14.3058 9.66061 14.0598 9.72623 13.893 9.893C13.7262 10.0598 13.6606 10.3058 13.7262 10.5355L14.2047 12.2305L12.496 12.6652C12.2663 12.7226 12.0859 12.9031 12.023 13.1327C11.9601 13.3624 12.0285 13.6057 12.2007 13.7697L13.4638 15L12.2007 16.2302C12.0285 16.3943 11.9628 16.6403 12.023 16.87C12.0831 17.0996 12.2663 17.2773 12.496 17.3375L14.2047 17.7695L13.7262 19.4645C13.6606 19.6941 13.7262 19.9402 13.893 20.107C14.0598 20.2737 14.3058 20.3393 14.5355 20.2737L16.2305 19.7953L16.6625 21.504C16.7199 21.7337 16.9003 21.9141 17.13 21.977C17.3596 22.0399 17.6029 21.9715 17.7697 21.802L19 20.5389L20.2302 21.802C20.397 21.9715 20.6403 22.0399 20.87 21.977C21.0996 21.9141 21.2773 21.7337 21.3375 21.504L21.7695 19.7953L23.4645 20.2737C23.6941 20.3393 23.9402 20.2737 24.107 20.107C24.2737 19.9402 24.3393 19.6941 24.2737 19.4645L23.7953 17.7695L25.504 17.3375C25.7337 17.2801 25.9141 17.0996 25.977 16.87C26.0399 16.6403 25.9715 16.397 25.802 16.2302L24.5389 15L25.802 13.7697C25.9715 13.6029 26.0399 13.3596 25.977 13.13C25.9141 12.9003 25.7337 12.7226 25.504 12.6625L23.7953 12.2305L24.2737 10.5355C24.3393 10.3058 24.2737 10.0598 24.107 9.893C23.9402 9.72623 23.6941 9.66061 23.4645 9.72623L21.7695 10.2047L21.3348 8.49596C21.2773 8.26631 21.0969 8.08587 20.8673 8.02299C20.6376 7.96011 20.3943 8.02846 20.2302 8.20069L19 9.46377L17.7697 8.20069Z" fill="#42A953"/>
<path d="M21.8745 12.1758C22.0418 12.4101 22.0418 12.7907 21.8745 13.025L18.4463 17.8242C18.2789 18.0586 18.007 18.0586 17.8396 17.8242L16.1255 15.4246C15.9582 15.1903 15.9582 14.8097 16.1255 14.5754C16.2929 14.341 16.5648 14.341 16.7322 14.5754L18.1436 16.5494L21.2692 12.1758C21.4366 11.9414 21.7084 11.9414 21.8758 12.1758H21.8745Z" fill="white"/>
<defs>
<filter id="filter0_d_180_4790" x="0" y="0" width="38" height="38" filterUnits="userSpaceOnUse" color-interpolation-filters="sRGB">
<feFlood flood-opacity="0" result="BackgroundImageFix"/>
<feColorMatrix in="SourceAlpha" type="matrix" values="0 0 0 0 0 0 0 0 0 0 0 0 0 0 0 0 0 0 127 0" result="hardAlpha"/>
<feOffset dy="4"/>
<feGaussianBlur stdDeviation="2"/>
<feComposite in2="hardAlpha" operator="out"/>
<feColorMatrix type="matrix" values="0 0 0 0 0 0 0 0 0 0 0 0 0 0 0 0 0 0 0.25 0"/>
<feBlend mode="normal" in2="BackgroundImageFix" result="effect1_dropShadow_180_4790"/>
<feBlend mode="normal" in="SourceGraphic" in2="effect1_dropShadow_180_4790" result="shape"/>
</filter>
</defs>
</svg>
