<svg width="38" height="38" viewBox="0 0 38 38" fill="none" xmlns="http://www.w3.org/2000/svg">
<g filter="url(#filter0_d_180_4772)">
<circle cx="19" cy="15" r="15" fill="white"/>
</g>
<path d="M13.9 9C13.4031 9 13 9.50391 13 10.125V17.625C13 18.2461 13.4031 18.75 13.9 18.75H14.2C14.2 19.9922 15.0063 21 16 21C16.9938 21 17.8 19.9922 17.8 18.75H20.2C20.2 19.9922 21.0063 21 22 21C22.9938 21 23.8 19.9922 23.8 18.75H24.4C24.7319 18.75 25 18.4148 25 18C25 17.5852 24.7319 17.25 24.4 17.25V15.75V15V14.5617C24.4 14.1633 24.2744 13.7812 24.0494 13.5L22.6 11.6883C22.375 11.407 22.0694 11.25 21.7506 11.25H20.8V10.125C20.8 9.50391 20.3969 9 19.9 9H13.9ZM20.8 12.75H21.7506L23.2 14.5617V15H20.8V12.75ZM15.1 18.75C15.1 18.4516 15.1948 18.1655 15.3636 17.9545C15.5324 17.7435 15.7613 17.625 16 17.625C16.2387 17.625 16.4676 17.7435 16.6364 17.9545C16.8052 18.1655 16.9 18.4516 16.9 18.75C16.9 19.0484 16.8052 19.3345 16.6364 19.5455C16.4676 19.7565 16.2387 19.875 16 19.875C15.7613 19.875 15.5324 19.7565 15.3636 19.5455C15.1948 19.3345 15.1 19.0484 15.1 18.75ZM22 17.625C22.2387 17.625 22.4676 17.7435 22.6364 17.9545C22.8052 18.1655 22.9 18.4516 22.9 18.75C22.9 19.0484 22.8052 19.3345 22.6364 19.5455C22.4676 19.7565 22.2387 19.875 22 19.875C21.7613 19.875 21.5324 19.7565 21.3636 19.5455C21.1948 19.3345 21.1 19.0484 21.1 18.75C21.1 18.4516 21.1948 18.1655 21.3636 17.9545C21.5324 17.7435 21.7613 17.625 22 17.625Z" fill="#42A953"/>
<path d="M14.5 9C13.6727 9 13 9.76875 13 10.7143V19.2857C13 20.2312 13.6727 21 14.5 21H23.5C24.3273 21 25 20.2312 25 19.2857V13.2857C25 12.3402 24.3273 11.5714 23.5 11.5714H14.875C14.6688 11.5714 14.5 11.3786 14.5 11.1429C14.5 10.9071 14.6688 10.7143 14.875 10.7143H23.5C23.9148 10.7143 24.25 10.3313 24.25 9.85714C24.25 9.38304 23.9148 9 23.5 9H14.5ZM22.75 15.4286C22.9489 15.4286 23.1397 15.5189 23.2803 15.6796C23.421 15.8404 23.5 16.0584 23.5 16.2857C23.5 16.513 23.421 16.7311 23.2803 16.8918C23.1397 17.0526 22.9489 17.1429 22.75 17.1429C22.5511 17.1429 22.3603 17.0526 22.2197 16.8918C22.079 16.7311 22 16.513 22 16.2857C22 16.0584 22.079 15.8404 22.2197 15.6796C22.3603 15.5189 22.5511 15.4286 22.75 15.4286Z" fill="#42A953"/>
<defs>
<filter id="filter0_d_180_4772" x="0" y="0" width="38" height="38" filterUnits="userSpaceOnUse" color-interpolation-filters="sRGB">
<feFlood flood-opacity="0" result="BackgroundImageFix"/>
<feColorMatrix in="SourceAlpha" type="matrix" values="0 0 0 0 0 0 0 0 0 0 0 0 0 0 0 0 0 0 127 0" result="hardAlpha"/>
<feOffset dy="4"/>
<feGaussianBlur stdDeviation="2"/>
<feComposite in2="hardAlpha" operator="out"/>
<feColorMatrix type="matrix" values="0 0 0 0 0 0 0 0 0 0 0 0 0 0 0 0 0 0 0.25 0"/>
<feBlend mode="normal" in2="BackgroundImageFix" result="effect1_dropShadow_180_4772"/>
<feBlend mode="normal" in="SourceGraphic" in2="effect1_dropShadow_180_4772" result="shape"/>
</filter>
</defs>
</svg>
