<svg width="38" height="38" viewBox="0 0 38 38" fill="none" xmlns="http://www.w3.org/2000/svg">
<g filter="url(#filter0_d_180_4783)">
<circle cx="19" cy="15" r="15" fill="white"/>
</g>
<path d="M14.0001 9.00008C14.0001 8.44691 14.447 8 15.0001 8H17.0001H17.5001H23C23.5531 8 24 8.44691 24 9.00008C24 9.55324 23.5531 10.0002 23 10.0002H21.2438C21.5438 10.4502 21.7656 10.9565 21.8906 11.5003H23C23.5531 11.5003 24 11.9472 24 12.5003C24 13.0535 23.5531 13.5004 23 13.5004H21.8875C21.475 15.3224 19.9532 16.7257 18.0688 16.9663L22.5813 20.1884C23.0313 20.5103 23.1344 21.1354 22.8125 21.5823C22.4906 22.0292 21.8656 22.1355 21.4188 21.8136L14.4189 16.8132C14.0657 16.5632 13.9157 16.11 14.047 15.6943C14.1782 15.2787 14.5657 15.0005 15.0001 15.0005H17.5001C18.5251 15.0005 19.4063 14.3849 19.7907 13.5004H15.0001C14.447 13.5004 14.0001 13.0535 14.0001 12.5003C14.0001 11.9472 14.447 11.5003 15.0001 11.5003H19.7907C19.4063 10.6158 18.5251 10.0002 17.5001 10.0002H17.0001H15.0001C14.447 10.0002 14.0001 9.55324 14.0001 9.00008Z" fill="#42A953"/>
<defs>
<filter id="filter0_d_180_4783" x="0" y="0" width="38" height="38" filterUnits="userSpaceOnUse" color-interpolation-filters="sRGB">
<feFlood flood-opacity="0" result="BackgroundImageFix"/>
<feColorMatrix in="SourceAlpha" type="matrix" values="0 0 0 0 0 0 0 0 0 0 0 0 0 0 0 0 0 0 127 0" result="hardAlpha"/>
<feOffset dy="4"/>
<feGaussianBlur stdDeviation="2"/>
<feComposite in2="hardAlpha" operator="out"/>
<feColorMatrix type="matrix" values="0 0 0 0 0 0 0 0 0 0 0 0 0 0 0 0 0 0 0.25 0"/>
<feBlend mode="normal" in2="BackgroundImageFix" result="effect1_dropShadow_180_4783"/>
<feBlend mode="normal" in="SourceGraphic" in2="effect1_dropShadow_180_4783" result="shape"/>
</filter>
</defs>
</svg>
