<svg width="38" height="38" viewBox="0 0 38 38" fill="none" xmlns="http://www.w3.org/2000/svg">
<g filter="url(#filter0_d_180_4756)">
<circle cx="19" cy="15" r="15" fill="white"/>
</g>
<path d="M14.5 9C13.6727 9 13 9.76875 13 10.7143V19.2857C13 20.2312 13.6727 21 14.5 21H23.5C24.3273 21 25 20.2312 25 19.2857V13.2857C25 12.3402 24.3273 11.5714 23.5 11.5714H14.875C14.6688 11.5714 14.5 11.3786 14.5 11.1429C14.5 10.9071 14.6688 10.7143 14.875 10.7143H23.5C23.9148 10.7143 24.25 10.3313 24.25 9.85714C24.25 9.38304 23.9148 9 23.5 9H14.5ZM22.75 15.4286C22.9489 15.4286 23.1397 15.5189 23.2803 15.6796C23.421 15.8404 23.5 16.0584 23.5 16.2857C23.5 16.513 23.421 16.7311 23.2803 16.8918C23.1397 17.0526 22.9489 17.1429 22.75 17.1429C22.5511 17.1429 22.3603 17.0526 22.2197 16.8918C22.079 16.7311 22 16.513 22 16.2857C22 16.0584 22.079 15.8404 22.2197 15.6796C22.3603 15.5189 22.5511 15.4286 22.75 15.4286Z" fill="#42A953"/>
<defs>
<filter id="filter0_d_180_4756" x="0" y="0" width="38" height="38" filterUnits="userSpaceOnUse" color-interpolation-filters="sRGB">
<feFlood flood-opacity="0" result="BackgroundImageFix"/>
<feColorMatrix in="SourceAlpha" type="matrix" values="0 0 0 0 0 0 0 0 0 0 0 0 0 0 0 0 0 0 127 0" result="hardAlpha"/>
<feOffset dy="4"/>
<feGaussianBlur stdDeviation="2"/>
<feComposite in2="hardAlpha" operator="out"/>
<feColorMatrix type="matrix" values="0 0 0 0 0 0 0 0 0 0 0 0 0 0 0 0 0 0 0.25 0"/>
<feBlend mode="normal" in2="BackgroundImageFix" result="effect1_dropShadow_180_4756"/>
<feBlend mode="normal" in="SourceGraphic" in2="effect1_dropShadow_180_4756" result="shape"/>
</filter>
</defs>
</svg>
