<svg width="15" height="13" viewBox="0 0 15 13" fill="none" xmlns="http://www.w3.org/2000/svg">
<path d="M11.25 12.8779C11.1419 12.8784 11.0353 12.8529 10.939 12.8037L7.49139 11.0018L4.04373 12.8037C3.93178 12.8624 3.80555 12.8887 3.67941 12.8794C3.55327 12.8701 3.43226 12.8257 3.33015 12.7512C3.22804 12.6767 3.14892 12.575 3.10178 12.4579C3.05465 12.3407 3.04139 12.2127 3.06351 12.0883L3.73952 8.28884L0.954356 5.58939C0.86746 5.50282 0.805818 5.39427 0.776043 5.27537C0.746269 5.15648 0.749488 5.03173 0.785354 4.91453C0.824535 4.79459 0.896609 4.68801 0.993396 4.60689C1.09018 4.52578 1.20781 4.47337 1.33292 4.45562L5.18619 3.89548L6.88298 0.433432C6.93833 0.319332 7.02476 0.223105 7.13236 0.155775C7.23997 0.0884449 7.36439 0.0527344 7.49139 0.0527344C7.61838 0.0527344 7.7428 0.0884449 7.85041 0.155775C7.95801 0.223105 8.04444 0.319332 8.0998 0.433432L9.81686 3.88873L13.6701 4.44887C13.7952 4.46662 13.9129 4.51903 14.0097 4.60015C14.1064 4.68126 14.1785 4.78784 14.2177 4.90778C14.2536 5.02498 14.2568 5.14973 14.227 5.26862C14.1972 5.38752 14.1356 5.49607 14.0487 5.58264L11.2635 8.28209L11.9395 12.0816C11.9637 12.2081 11.951 12.3389 11.9031 12.4585C11.8552 12.578 11.774 12.6814 11.6691 12.7564C11.5467 12.8421 11.3993 12.8848 11.25 12.8779Z" fill="white"/>
</svg>
