<svg width="22" height="24" viewBox="0 0 22 24" fill="none" xmlns="http://www.w3.org/2000/svg">
<path d="M20.7244 9.83398C21.2221 11.8703 21.0235 14.0078 20.1583 15.9255C19.2932 17.8433 17.8083 19.4378 15.9266 20.4696C14.0449 21.5014 11.868 21.9148 9.72268 21.6477C7.57741 21.3806 5.57961 20.4474 4.0293 18.9883" stroke="#42A953" stroke-width="2" stroke-linecap="round"/>
<path d="M1.22523 14.125C1.07519 13.4496 0.999702 12.7606 1.00002 12.0697C0.996069 10.1716 1.57001 8.31443 2.65021 6.72987C3.73042 5.14531 5.26907 3.90355 7.07416 3.15956C8.87925 2.41556 10.8709 2.20227 12.8005 2.54629C14.7301 2.89031 16.5122 3.77642 17.9246 5.09404" stroke="#42A953" stroke-width="2" stroke-linecap="round"/>
<path d="M13.4336 5.52167L18.061 5.19282L17.6998 1" stroke="#42A953" stroke-width="2" stroke-linecap="round"/>
<path d="M8.41023 18.4785L3.78711 18.8074L4.14829 23.0002" stroke="#42A953" stroke-width="2" stroke-linecap="round"/>
</svg>
