<svg width="38" height="23" viewBox="0 0 38 23" fill="none" xmlns="http://www.w3.org/2000/svg">
<path d="M12.3069 22.0001C14.0912 22.0001 15.5377 20.5537 15.5377 18.7693C15.5377 16.985 14.0912 15.5386 12.3069 15.5386C10.5226 15.5386 9.07617 16.985 9.07617 18.7693C9.07617 20.5537 10.5226 22.0001 12.3069 22.0001Z" stroke="#42A953" stroke-width="2" stroke-miterlimit="1.5" stroke-linecap="round" stroke-linejoin="round"/>
<path d="M28.4612 22.0001C30.2456 22.0001 31.692 20.5537 31.692 18.7693C31.692 16.985 30.2456 15.5386 28.4612 15.5386C26.6769 15.5386 25.2305 16.985 25.2305 18.7693C25.2305 20.5537 26.6769 22.0001 28.4612 22.0001Z" stroke="#42A953" stroke-width="2" stroke-miterlimit="1.5" stroke-linecap="round" stroke-linejoin="round"/>
<path d="M15.6192 18.7692H23.6154V1.96923C23.6154 1.43394 23.1815 1 22.6461 1H1" stroke="#42A953" stroke-width="2" stroke-linecap="round"/>
<path d="M8.51123 18.7694H5.1997C4.66441 18.7694 4.23047 18.3355 4.23047 17.8001V9.88477" stroke="#42A953" stroke-width="2" stroke-linecap="round"/>
<path d="M2.61523 5.84619H9.07676" stroke="#42A953" stroke-width="2" stroke-linecap="round" stroke-linejoin="round"/>
<path d="M23.6152 5.84619H32.6777C33.0607 5.84619 33.4078 6.07176 33.5634 6.42179L36.4548 12.9274C36.5099 13.0514 36.5383 13.1855 36.5383 13.3211V17.8C36.5383 18.3354 36.1044 18.7693 35.5691 18.7693H32.4998" stroke="#42A953" stroke-width="2" stroke-linecap="round"/>
<path d="M23.6152 18.769H25.2306" stroke="#42A953" stroke-width="2" stroke-linecap="round"/>
</svg>
