<svg width="21" height="21" viewBox="0 0 21 21" fill="none" xmlns="http://www.w3.org/2000/svg">
<path d="M10.4994 1.1665C8.6534 1.1665 6.84889 1.71389 5.31403 2.73945C3.77917 3.76501 2.5829 5.22268 1.87648 6.92813C1.17006 8.63357 0.985228 10.5102 1.34536 12.3207C1.70549 14.1312 2.5944 15.7942 3.89969 17.0995C5.20498 18.4048 6.86802 19.2937 8.67851 19.6538C10.489 20.014 12.3656 19.8291 14.0711 19.1227C15.7765 18.4163 17.2342 17.22 18.2597 15.6852C19.2853 14.1503 19.8327 12.3458 19.8327 10.4998C19.8327 8.02448 18.8494 5.65051 17.099 3.90017C15.3487 2.14983 12.9747 1.1665 10.4994 1.1665ZM13.9294 6.4165H15.166C15.3207 6.4165 15.4691 6.47796 15.5785 6.58736C15.6879 6.69675 15.7494 6.84513 15.7494 6.99984C15.7494 7.15455 15.6879 7.30292 15.5785 7.41232C15.4691 7.52171 15.3207 7.58317 15.166 7.58317H14.151V7.694C14.1595 8.16151 14.0756 8.6261 13.9042 9.06112C13.7327 9.49613 13.4771 9.89303 13.1519 10.229C12.8268 10.565 12.4385 10.8336 12.0093 11.0192C11.5801 11.2048 11.1186 11.3038 10.651 11.3107H9.48435L13.4627 16.0123C13.588 16.1601 13.6495 16.3516 13.6336 16.5446C13.6178 16.7377 13.5259 16.9166 13.3781 17.0419C13.2304 17.1672 13.0389 17.2287 12.8458 17.2129C12.6527 17.197 12.4738 17.1051 12.3485 16.9573L7.36685 11.0482C7.27492 10.9403 7.2164 10.808 7.19845 10.6675C7.1805 10.5269 7.2039 10.3842 7.26578 10.2567C7.32766 10.1292 7.42535 10.0225 7.5469 9.94967C7.66845 9.87683 7.80859 9.84098 7.95019 9.8465H10.6977C11.2521 9.82973 11.7773 9.59366 12.1579 9.19011C12.5385 8.78656 12.7434 8.24849 12.7277 7.694C12.7277 7.65317 12.7277 7.61817 12.7277 7.57734H7.47769C7.32298 7.57734 7.1746 7.51588 7.06521 7.40648C6.95581 7.29709 6.89435 7.14871 6.89435 6.994C6.89435 6.83929 6.95581 6.69092 7.06521 6.58153C7.1746 6.47213 7.32298 6.41067 7.47769 6.41067H12.331C12.1513 6.14484 11.91 5.92643 11.6276 5.77407C11.3452 5.62171 11.0302 5.53991 10.7094 5.53567H7.43685C7.24347 5.53567 7.058 5.45885 6.92126 5.3221C6.78451 5.18536 6.70769 4.99989 6.70769 4.8065C6.70769 4.61312 6.78451 4.42765 6.92126 4.29091C7.058 4.15416 7.24347 4.07734 7.43685 4.07734H15.166C15.3207 4.07734 15.4691 4.1388 15.5785 4.24819C15.6879 4.35759 15.7494 4.50596 15.7494 4.66067C15.7494 4.81538 15.6879 4.96375 15.5785 5.07315C15.4691 5.18255 15.3207 5.244 15.166 5.244H13.2294C13.5347 5.58709 13.7722 5.98495 13.9294 6.4165Z" fill="#42A953"/>
</svg>
